<svg width="25" height="25" xmlns="http://www.w3.org/2000/svg">
  <path
    d="M5.908 21.876c.278.176.606.252.909.252s.63-.076.908-.252l9.892-6.788c.555-.328.883-.909.883-1.565s-.328-1.236-.883-1.564L7.8 5.196l-.05-.025c-.58-.328-1.262-.328-1.817 0S5 6.079 5 6.761v13.55c0 .656.353 1.237.908 1.565zM6.766 6.76c0-.025 0-.025.026-.05h.05l9.79 6.737.051.025s.025.025.025.05-.025.05-.025.05l-9.84 6.789h-.051c-.026-.026-.026-.05-.026-.076V6.761z"
    id="svg_1" transform="rotate(90 11.75 13.527)" fill="#c199f5" />
</svg>